<?xml version="1.0" encoding="UTF-8"?>
<svg xmlns="http://www.w3.org/2000/svg" viewBox="0 0 1148.4 1148.4" width="1148.4" height="1148.4">
<rect width="1148.4" height="1148.4" fill="#99462a"/><g transform="translate(163.80000000000007,114.84000000000003)"><path d="M222.48 718.56Q164.16 718.56 119.52 697.68Q74.88 676.80 49.68 637.92Q24.48 599.04 24.48 544.32L24.48 524.16L118.08 524.16L118.08 544.32Q118.08 589.68 146.16 612.36Q174.24 635.04 222.48 635.04Q271.44 635.04 295.56 615.60Q319.68 596.16 319.68 565.92Q319.68 545.04 307.80 532.08Q295.92 519.12 273.24 510.84Q250.56 502.56 218.16 495.36L201.60 491.76Q149.76 480.24 112.68 462.60Q75.60 444.96 55.80 416.16Q36 387.36 36 341.28Q36 295.20 57.96 262.44Q79.92 229.68 119.88 212.04Q159.84 194.40 213.84 194.40Q267.84 194.40 309.96 212.76Q352.08 231.12 376.20 267.48Q400.32 303.84 400.32 358.56L400.32 380.16L306.72 380.16L306.72 358.56Q306.72 329.76 295.56 312.12Q284.40 294.48 263.52 286.20Q242.64 277.92 213.84 277.92Q170.64 277.92 150.12 294.12Q129.60 310.32 129.60 338.40Q129.60 357.12 139.32 370.08Q149.04 383.04 168.48 391.68Q187.92 400.32 218.16 406.80L234.72 410.40Q288.72 421.92 328.68 439.92Q368.64 457.92 390.96 487.44Q413.28 516.96 413.28 563.04Q413.28 609.12 389.88 644.04Q366.48 678.96 323.64 698.76Q280.80 718.56 222.48 718.56" fill="#ffffff"/><path d="M578.88 708.48L483.84 708.48L483.84 204.48L800.64 204.48L800.64 290.88L578.88 290.88L578.88 412.56L783.36 412.56L783.36 498.96L578.88 498.96" fill="#ffd6c4"/></g>
</svg>