<?xml version="1.0" encoding="UTF-8"?>
<svg xmlns="http://www.w3.org/2000/svg" viewBox="0 0 1523.8199999999997 368.72" width="1523.8199999999997" height="368.72">
<rect width="1523.8199999999997" height="368.72" fill="#1a1c1c"/><g transform="translate(44,44)"><path d="M67.98 219.56Q50.16 219.56 36.52 213.18Q22.88 206.80 15.18 194.92Q7.48 183.04 7.48 166.32L7.48 160.16L36.08 160.16L36.08 166.32Q36.08 180.18 44.66 187.11Q53.24 194.04 67.98 194.04Q82.94 194.04 90.31 188.10Q97.68 182.16 97.68 172.92Q97.68 166.54 94.05 162.58Q90.42 158.62 83.49 156.09Q76.56 153.56 66.66 151.36L61.60 150.26Q45.76 146.74 34.43 141.35Q23.10 135.96 17.05 127.16Q11 118.36 11 104.28Q11 90.20 17.71 80.19Q24.42 70.18 36.63 64.79Q48.84 59.40 65.34 59.40Q81.84 59.40 94.71 65.01Q107.58 70.62 114.95 81.73Q122.32 92.84 122.32 109.56L122.32 116.16L93.72 116.16L93.72 109.56Q93.72 100.76 90.31 95.37Q86.90 89.98 80.52 87.45Q74.14 84.92 65.34 84.92Q52.14 84.92 45.87 89.87Q39.60 94.82 39.60 103.40Q39.60 109.12 42.57 113.08Q45.54 117.04 51.48 119.68Q57.42 122.32 66.66 124.30L71.72 125.40Q88.22 128.92 100.43 134.42Q112.64 139.92 119.46 148.94Q126.28 157.96 126.28 172.04Q126.28 186.12 119.13 196.79Q111.98 207.46 98.89 213.51Q85.80 219.56 67.98 219.56M199.98 219.56Q184.14 219.56 171.27 212.96Q158.40 206.36 150.92 193.82Q143.44 181.28 143.44 163.46L143.44 160.38Q143.44 142.56 150.92 130.02Q158.40 117.48 171.27 110.88Q184.14 104.28 199.98 104.28Q215.60 104.28 226.82 109.78Q238.04 115.28 244.97 124.85Q251.90 134.42 254.10 146.52L227.26 152.24Q226.38 145.64 223.30 140.36Q220.22 135.08 214.61 132Q209 128.92 200.64 128.92Q192.28 128.92 185.57 132.55Q178.86 136.18 175.01 143.33Q171.16 150.48 171.16 160.82L171.16 163.02Q171.16 173.36 175.01 180.51Q178.86 187.66 185.57 191.29Q192.28 194.92 200.64 194.92Q213.18 194.92 219.67 188.43Q226.16 181.94 227.92 171.38L254.76 177.76Q251.90 189.42 244.97 198.99Q238.04 208.56 226.82 214.06Q215.60 219.56 199.98 219.56M311.52 219.56Q299.86 219.56 290.62 215.49Q281.38 211.42 275.99 203.61Q270.60 195.80 270.60 184.58Q270.60 173.36 275.99 165.77Q281.38 158.18 290.95 154.33Q300.52 150.48 312.84 150.48L342.76 150.48L342.76 144.32Q342.76 136.62 337.92 131.67Q333.08 126.72 322.52 126.72Q312.18 126.72 307.12 131.45Q302.06 136.18 300.52 143.66L275 135.08Q277.64 126.72 283.47 119.79Q289.30 112.86 299.09 108.57Q308.88 104.28 322.96 104.28Q344.52 104.28 357.06 115.06Q369.60 125.84 369.60 146.30L369.60 187Q369.60 193.60 375.76 193.60L384.56 193.60L384.56 216.48L366.08 216.48Q357.94 216.48 352.66 212.52Q347.38 208.56 347.38 201.96L347.38 201.74L343.20 201.74Q342.32 204.38 339.24 208.67Q336.16 212.96 329.56 216.26Q322.96 219.56 311.52 219.56M316.36 197.12Q328.02 197.12 335.39 190.63Q342.76 184.14 342.76 173.36L342.76 171.16L314.82 171.16Q307.12 171.16 302.72 174.46Q298.32 177.76 298.32 183.70Q298.32 189.64 302.94 193.38Q307.56 197.12 316.36 197.12M432.52 216.48L404.80 216.48L404.80 62.48L432.52 62.48L432.52 216.48M513.04 219.56Q496.76 219.56 484.33 212.63Q471.90 205.70 464.97 193.05Q458.04 180.40 458.04 163.24L458.04 160.60Q458.04 143.44 464.86 130.79Q471.68 118.14 484 111.21Q496.32 104.28 512.60 104.28Q528.66 104.28 540.54 111.43Q552.42 118.58 559.02 131.23Q565.62 143.88 565.62 160.60L565.62 170.06L486.20 170.06Q486.64 181.28 494.56 188.32Q502.48 195.36 513.92 195.36Q525.58 195.36 531.08 190.30Q536.58 185.24 539.44 179.08L562.10 190.96Q559.02 196.68 553.19 203.39Q547.36 210.10 537.68 214.83Q528 219.56 513.04 219.56M486.42 149.38L537.46 149.38Q536.58 139.92 529.87 134.20Q523.16 128.48 512.38 128.48Q501.16 128.48 494.56 134.20Q487.96 139.92 486.42 149.38M618.42 216.48L589.38 216.48L589.38 62.48L686.18 62.48L686.18 88.88L618.42 88.88L618.42 126.06L680.90 126.06L680.90 152.46L618.42 152.46L618.42 216.48M735.46 216.48L707.74 216.48L707.74 62.48L735.46 62.48L735.46 216.48M818.18 219.56Q801.90 219.56 788.92 212.96Q775.94 206.36 768.46 193.82Q760.98 181.28 760.98 163.68L760.98 160.16Q760.98 142.56 768.46 130.02Q775.94 117.48 788.92 110.88Q801.90 104.28 818.18 104.28Q834.46 104.28 847.44 110.88Q860.42 117.48 867.90 130.02Q875.38 142.56 875.38 160.16L875.38 163.68Q875.38 181.28 867.90 193.82Q860.42 206.36 847.44 212.96Q834.46 219.56 818.18 219.56M818.18 194.92Q830.94 194.92 839.30 186.67Q847.66 178.42 847.66 163.02L847.66 160.82Q847.66 145.42 839.41 137.17Q831.16 128.92 818.18 128.92Q805.42 128.92 797.06 137.17Q788.70 145.42 788.70 160.82L788.70 163.02Q788.70 178.42 797.06 186.67Q805.42 194.92 818.18 194.92M955.24 216.48L909.26 216.48L893.86 107.36L921.36 107.36L931.04 197.78L935 197.78L949.08 107.36L993.52 107.36L1007.60 197.78L1011.56 197.78L1021.24 107.36L1048.74 107.36L1033.34 216.48L987.36 216.48L973.28 126.06L969.32 126.06" fill="#ffffff"/><path d="M1094.78 216.48L1086.62 216.48L1097.66 174.48L1111.46 174.48L1122.50 216.48L1114.34 216.48L1112.06 207.24L1097.06 207.24L1094.78 216.48M1104.02 179.46L1098.92 199.92L1110.20 199.92L1105.10 179.46" fill="#ffb59e"/><path d="M1155.50 217.32Q1147.70 217.32 1143.14 212.97Q1138.58 208.62 1138.58 200.52L1138.58 190.44Q1138.58 182.34 1143.14 177.99Q1147.70 173.64 1155.50 173.64Q1163.24 173.64 1167.47 177.87Q1171.70 182.10 1171.70 189.48L1171.70 189.84L1163.90 189.84L1163.90 189.24Q1163.90 185.52 1161.83 183.12Q1159.76 180.72 1155.50 180.72Q1151.30 180.72 1148.90 183.30Q1146.50 185.88 1146.50 190.32L1146.50 200.64Q1146.50 205.02 1148.90 207.63Q1151.30 210.24 1155.50 210.24Q1159.76 210.24 1161.83 207.81Q1163.90 205.38 1163.90 201.72L1163.90 200.64L1171.70 200.64L1171.70 201.48Q1171.70 208.86 1167.47 213.09Q1163.24 217.32 1155.50 217.32" fill="#ffb59e"/><path d="M1195.46 216.48L1187.30 216.48L1198.34 174.48L1212.14 174.48L1223.18 216.48L1215.02 216.48L1212.74 207.24L1197.74 207.24L1195.46 216.48M1204.70 179.46L1199.60 199.92L1210.88 199.92L1205.78 179.46" fill="#ffb59e"/><path d="M1256.30 216.48L1239.02 216.48L1239.02 209.52L1244.54 209.52L1244.54 181.44L1239.02 181.44L1239.02 174.48L1256.30 174.48Q1264.76 174.48 1269.17 178.77Q1273.58 183.06 1273.58 191.52L1273.58 199.44Q1273.58 207.90 1269.17 212.19Q1264.76 216.48 1256.30 216.48M1252.46 181.68L1252.46 209.28L1256.42 209.28Q1261.22 209.28 1263.44 206.76Q1265.66 204.24 1265.66 199.68L1265.66 191.28Q1265.66 186.66 1263.44 184.17Q1261.22 181.68 1256.42 181.68" fill="#ffb59e"/><path d="M1319.54 216.48L1292.18 216.48L1292.18 174.48L1319.18 174.48L1319.18 181.68L1300.10 181.68L1300.10 191.70L1317.50 191.70L1317.50 198.90L1300.10 198.90L1300.10 209.28L1319.54 209.28" fill="#ffb59e"/><path d="M1345.10 216.48L1337.42 216.48L1337.42 174.48L1352.12 174.48L1359.38 211.08L1360.46 211.08L1367.72 174.48L1382.42 174.48L1382.42 216.48L1374.74 216.48L1374.74 180.30L1373.66 180.30L1366.46 216.48L1353.38 216.48L1346.18 180.30L1345.10 180.30" fill="#ffb59e"/><path d="M1421.06 216.48L1413.14 216.48L1413.14 202.02L1398.86 174.48L1407.68 174.48L1416.56 192.48L1417.64 192.48L1426.52 174.48L1435.34 174.48L1421.06 202.02" fill="#ffb59e"/></g>
</svg>