<?xml version="1.0" encoding="UTF-8"?>
<svg xmlns="http://www.w3.org/2000/svg" viewBox="0 0 1602.1 674.328" width="1602.1" height="674.328">
<g transform="translate(80,80)"><path d="M92.70 299.40Q68.40 299.40 49.80 290.70Q31.20 282 20.70 265.80Q10.20 249.60 10.20 226.80L10.20 218.40L49.20 218.40L49.20 226.80Q49.20 245.70 60.90 255.15Q72.60 264.60 92.70 264.60Q113.10 264.60 123.15 256.50Q133.20 248.40 133.20 235.80Q133.20 227.10 128.25 221.70Q123.30 216.30 113.85 212.85Q104.40 209.40 90.90 206.40L84 204.90Q62.40 200.10 46.95 192.75Q31.50 185.40 23.25 173.40Q15 161.40 15 142.20Q15 123 24.15 109.35Q33.30 95.70 49.95 88.35Q66.60 81 89.10 81Q111.60 81 129.15 88.65Q146.70 96.30 156.75 111.45Q166.80 126.60 166.80 149.40L166.80 158.40L127.80 158.40L127.80 149.40Q127.80 137.40 123.15 130.05Q118.50 122.70 109.80 119.25Q101.10 115.80 89.10 115.80Q71.10 115.80 62.55 122.55Q54 129.30 54 141Q54 148.80 58.05 154.20Q62.10 159.60 70.20 163.20Q78.30 166.80 90.90 169.50L97.80 171Q120.30 175.80 136.95 183.30Q153.60 190.80 162.90 203.10Q172.20 215.40 172.20 234.60Q172.20 253.80 162.45 268.35Q152.70 282.90 134.85 291.15Q117 299.40 92.70 299.40M272.70 299.40Q251.10 299.40 233.55 290.40Q216 281.40 205.80 264.30Q195.60 247.20 195.60 222.90L195.60 218.70Q195.60 194.40 205.80 177.30Q216 160.20 233.55 151.20Q251.10 142.20 272.70 142.20Q294 142.20 309.30 149.70Q324.60 157.20 334.05 170.25Q343.50 183.30 346.50 199.80L309.90 207.60Q308.70 198.60 304.50 191.40Q300.30 184.20 292.65 180Q285 175.80 273.60 175.80Q262.20 175.80 253.05 180.75Q243.90 185.70 238.65 195.45Q233.40 205.20 233.40 219.30L233.40 222.30Q233.40 236.40 238.65 246.15Q243.90 255.90 253.05 260.85Q262.20 265.80 273.60 265.80Q290.70 265.80 299.55 256.95Q308.40 248.10 310.80 233.70L347.40 242.40Q343.50 258.30 334.05 271.35Q324.60 284.40 309.30 291.90Q294 299.40 272.70 299.40M424.80 299.40Q408.90 299.40 396.30 293.85Q383.70 288.30 376.35 277.65Q369 267 369 251.70Q369 236.40 376.35 226.05Q383.70 215.70 396.75 210.45Q409.80 205.20 426.60 205.20L467.40 205.20L467.40 196.80Q467.40 186.30 460.80 179.55Q454.20 172.80 439.80 172.80Q425.70 172.80 418.80 179.25Q411.90 185.70 409.80 195.90L375 184.20Q378.60 172.80 386.55 163.35Q394.50 153.90 407.85 148.05Q421.20 142.20 440.40 142.20Q469.80 142.20 486.90 156.90Q504 171.60 504 199.50L504 255Q504 264 512.40 264L524.40 264L524.40 295.20L499.20 295.20Q488.10 295.20 480.90 289.80Q473.70 284.40 473.70 275.40L473.70 275.10L468 275.10Q466.80 278.70 462.60 284.55Q458.40 290.40 449.40 294.90Q440.40 299.40 424.80 299.40M431.40 268.80Q447.30 268.80 457.35 259.95Q467.40 251.10 467.40 236.40L467.40 233.40L429.30 233.40Q418.80 233.40 412.80 237.90Q406.80 242.40 406.80 250.50Q406.80 258.60 413.10 263.70Q419.40 268.80 431.40 268.80M589.80 295.20L552 295.20L552 85.20L589.80 85.20L589.80 295.20M699.60 299.40Q677.40 299.40 660.45 289.95Q643.50 280.50 634.05 263.25Q624.60 246 624.60 222.60L624.60 219Q624.60 195.60 633.90 178.35Q643.20 161.10 660 151.65Q676.80 142.20 699 142.20Q720.90 142.20 737.10 151.95Q753.30 161.70 762.30 178.95Q771.30 196.20 771.30 219L771.30 231.90L663 231.90Q663.60 247.20 674.40 256.80Q685.20 266.40 700.80 266.40Q716.70 266.40 724.20 259.50Q731.70 252.60 735.60 244.20L766.50 260.40Q762.30 268.20 754.35 277.35Q746.40 286.50 733.20 292.95Q720 299.40 699.60 299.40M663.30 203.70L732.90 203.70Q731.70 190.80 722.55 183Q713.40 175.20 698.70 175.20Q683.40 175.20 674.40 183Q665.40 190.80 663.30 203.70M843.30 295.20L803.70 295.20L803.70 85.20L935.70 85.20L935.70 121.20L843.30 121.20L843.30 171.90L928.50 171.90L928.50 207.90L843.30 207.90L843.30 295.20M1002.90 295.20L965.10 295.20L965.10 85.20L1002.90 85.20L1002.90 295.20M1115.70 299.40Q1093.50 299.40 1075.80 290.40Q1058.10 281.40 1047.90 264.30Q1037.70 247.20 1037.70 223.20L1037.70 218.40Q1037.70 194.40 1047.90 177.30Q1058.10 160.20 1075.80 151.20Q1093.50 142.20 1115.70 142.20Q1137.90 142.20 1155.60 151.20Q1173.30 160.20 1183.50 177.30Q1193.70 194.40 1193.70 218.40L1193.70 223.20Q1193.70 247.20 1183.50 264.30Q1173.30 281.40 1155.60 290.40Q1137.90 299.40 1115.70 299.40M1115.70 265.80Q1133.10 265.80 1144.50 254.55Q1155.90 243.30 1155.90 222.30L1155.90 219.30Q1155.90 198.30 1144.65 187.05Q1133.40 175.80 1115.70 175.80Q1098.30 175.80 1086.90 187.05Q1075.50 198.30 1075.50 219.30L1075.50 222.30Q1075.50 243.30 1086.90 254.55Q1098.30 265.80 1115.70 265.80M1302.60 295.20L1239.90 295.20L1218.90 146.40L1256.40 146.40L1269.60 269.70L1275 269.70L1294.20 146.40L1354.80 146.40L1374 269.70L1379.40 269.70L1392.60 146.40L1430.10 146.40L1409.10 295.20L1346.40 295.20L1327.20 171.90L1321.80 171.90" fill="#1a1c1c"/><g transform="translate(-0.5460000000000491,0)"><path d="M12.01 491.55L1.40 491.55L15.76 436.95L33.70 436.95L48.05 491.55L37.44 491.55L34.48 479.54L14.98 479.54L12.01 491.55M24.02 443.43L17.39 470.02L32.06 470.02L25.43 443.43" fill="#99462a"/><path d="M255.59 492.64Q245.45 492.64 239.52 486.99Q233.59 481.33 233.59 470.80L233.59 457.70Q233.59 447.17 239.52 441.51Q245.45 435.86 255.59 435.86Q265.65 435.86 271.15 441.36Q276.65 446.86 276.65 456.45L276.65 456.92L266.51 456.92L266.51 456.14Q266.51 451.30 263.81 448.18Q261.12 445.06 255.59 445.06Q250.13 445.06 247.01 448.42Q243.89 451.77 243.89 457.54L243.89 470.96Q243.89 476.65 247.01 480.05Q250.13 483.44 255.59 483.44Q261.12 483.44 263.81 480.28Q266.51 477.12 266.51 472.36L266.51 470.96L276.65 470.96L276.65 472.05Q276.65 481.65 271.15 487.14Q265.65 492.64 255.59 492.64" fill="#99462a"/><path d="M472.17 491.55L461.56 491.55L475.92 436.95L493.86 436.95L508.21 491.55L497.60 491.55L494.64 479.54L475.14 479.54L472.17 491.55M484.18 443.43L477.55 470.02L492.22 470.02L485.59 443.43" fill="#99462a"/><path d="M715.90 491.55L693.44 491.55L693.44 482.50L700.61 482.50L700.61 446L693.44 446L693.44 436.95L715.90 436.95Q726.90 436.95 732.63 442.53Q738.37 448.11 738.37 459.10L738.37 469.40Q738.37 480.40 732.63 485.97Q726.90 491.55 715.90 491.55M710.91 446.31L710.91 482.19L716.06 482.19Q722.30 482.19 725.18 478.92Q728.07 475.64 728.07 469.71L728.07 458.79Q728.07 452.79 725.18 449.55Q722.30 446.31 716.06 446.31" fill="#99462a"/><path d="M962.75 491.55L927.18 491.55L927.18 436.95L962.28 436.95L962.28 446.31L937.48 446.31L937.48 459.34L960.10 459.34L960.10 468.70L937.48 468.70L937.48 482.19L962.75 482.19" fill="#99462a"/><path d="M1160.62 491.55L1150.63 491.55L1150.63 436.95L1169.74 436.95L1179.18 484.53L1180.59 484.53L1190.02 436.95L1209.13 436.95L1209.13 491.55L1199.15 491.55L1199.15 444.52L1197.75 444.52L1188.39 491.55L1171.38 491.55L1162.02 444.52L1160.62 444.52" fill="#99462a"/><path d="M1424 491.55L1413.71 491.55L1413.71 472.75L1395.14 436.95L1406.61 436.95L1418.15 460.35L1419.56 460.35L1431.10 436.95L1442.57 436.95L1424 472.75" fill="#99462a"/></g></g>
</svg>